<svg xmlns="http://www.w3.org/2000/svg">
  <symbol id="folder" viewBox="0 0 24 24"><path d="M3 7V5a2 2 0 0 1 2-2h5l3 3h6a2 2 0 0 1 2 2v11a2 2 0 0 1-2 2H5a2 2 0 0 1-2-2V7Z"/></symbol>
  <symbol id="folder-plus" viewBox="0 0 24 24"><path d="M3 7V5a2 2 0 0 1 2-2h5l3 3h6a2 2 0 0 1 2 2v11a2 2 0 0 1-2 2H5a2 2 0 0 1-2-2V7Zm6 7h6m-3-3v6"/></symbol>
  <symbol id="folder-open" viewBox="0 0 24 24"><path d="M3 18V5a2 2 0 0 1 2-2h5l3 3h6a2 2 0 0 1 2 2v2M3 20l3-9h16l-3 9H3Z"/></symbol>
  <symbol id="chevron-right" viewBox="0 0 24 24"><path d="m9 5 7 7-7 7"/></symbol>
  <symbol id="chevron-left" viewBox="0 0 24 24"><path d="m15 5-7 7 7 7"/></symbol>
  <symbol id="check" viewBox="0 0 24 24"><path d="m4 12 5 5L20 6"/></symbol>
  <symbol id="plus" viewBox="0 0 24 24"><path d="M12 4v16M4 12h16"/></symbol>
  <symbol id="pin" viewBox="0 0 24 24"><path d="m15 3 6 6-4 1-4 5-4-4 5-4 1-4Zm-6 8-3 3 4 4 3-3M3 21l5-5"/></symbol>
  <symbol id="pin-off" viewBox="0 0 24 24"><path d="m15 3 6 6-4 1-2 3M9 11l-3 3 4 4 3-3M3 21l5-5M3 3l18 18"/></symbol>
  <symbol id="bell" viewBox="0 0 24 24"><path d="M5 16h14l-2-3V9a5 5 0 0 0-10 0v4l-2 3Zm5 4h4M12 2v2"/></symbol>
  <symbol id="bell-off" viewBox="0 0 24 24"><path d="M9 4.9A5 5 0 0 1 17 9v4l2 3M7 9v4l-2 3h9m-4 4h4M12 2v2M3 3l18 18"/></symbol>
  <symbol id="archive" viewBox="0 0 24 24"><rect x="3" y="3" width="18" height="5" rx="1"/><path d="M5 8v12h14V8m-10 5h6"/></symbol>
  <symbol id="archive-restore" viewBox="0 0 24 24"><path d="M9 3H3v5h6m6-5h6v5h-6M5 8v12h14V8M12 15V3m-3 3 3-3 3 3"/></symbol>
  <symbol id="pencil" viewBox="0 0 24 24"><path d="m15 4 5 5M4 20l1-5L16 4a2 2 0 0 1 3 0l1 1a2 2 0 0 1 0 3L9 19l-5 1Z"/></symbol>
  <symbol id="trash" viewBox="0 0 24 24"><path d="M3 6h18M9 6V3h6v3M5 6l1 15h12l1-15M10 10v7m4-7v7"/></symbol>
  <symbol id="copy" viewBox="0 0 24 24"><rect x="8" y="8" width="13" height="13" rx="2"/><path d="M16 5V3H3v13h2"/></symbol>
  <symbol id="reply" viewBox="0 0 24 24"><path d="m9 5-6 6 6 6M3 11h10a7 7 0 0 1 7 7v2"/></symbol>
  <symbol id="forward" viewBox="0 0 24 24"><path d="m15 5 6 6-6 6M21 11H11a7 7 0 0 0-7 7v2"/></symbol>
  <symbol id="message-circle" viewBox="0 0 24 24"><path d="M21 11.5a9 9 0 0 1-13 8L3 21l1.5-5a9 9 0 1 1 16.5-4.5Z"/></symbol>
  <symbol id="messages" viewBox="0 0 24 24"><path d="M18 10V3H3v11l4-3h11M8 15v3h9l4 3V9"/></symbol>
  <symbol id="users" viewBox="0 0 24 24"><circle cx="9" cy="7" r="4"/><path d="M2 21v-3a6 6 0 0 1 12 0v3M16 3a4 4 0 0 1 0 8m1 3a6 6 0 0 1 5 6v1"/></symbol>
  <symbol id="user" viewBox="0 0 24 24"><circle cx="12" cy="7" r="4"/><path d="M4 21v-2a8 8 0 0 1 16 0v2"/></symbol>
  <symbol id="settings" viewBox="0 0 24 24"><path d="m10 3-.5 2.5-2 .9-2.3-.9-2 3.5 2 1.6v2.8l-2 1.6 2 3.5 2.3-.9 2 .9.5 2.5h4l.5-2.5 2-.9 2.3.9 2-3.5-2-1.6v-2.8l2-1.6-2-3.5-2.3.9-2-.9L14 3h-4Z"/><circle cx="12" cy="12" r="3"/></symbol>
  <symbol id="search" viewBox="0 0 24 24"><circle cx="10.5" cy="10.5" r="7.5"/><path d="m16 16 5 5"/></symbol>
  <symbol id="paperclip" viewBox="0 0 24 24"><path d="m8 12 7-7a4 4 0 0 1 6 6L10 22a6 6 0 0 1-8-8L13 3m-5 9-3 3a2 2 0 0 0 3 3l10-10"/></symbol>
  <symbol id="image" viewBox="0 0 24 24"><rect x="3" y="3" width="18" height="18" rx="3"/><circle cx="8" cy="8" r="1.5"/><path d="m3 17 5-5 4 4 4-6 5 7"/></symbol>
  <symbol id="video" viewBox="0 0 24 24"><rect x="3" y="5" width="12" height="14" rx="2"/><path d="m15 10 6-4v12l-6-4"/></symbol>
  <symbol id="circle-video" viewBox="0 0 24 24"><circle cx="12" cy="12" r="9"/><path d="m10 8 6 4-6 4V8Z"/></symbol>
  <symbol id="mic" viewBox="0 0 24 24"><rect x="9" y="2" width="6" height="13" rx="3"/><path d="M5 10v2a7 7 0 0 0 14 0v-2M12 19v3m-4 0h8"/></symbol>
  <symbol id="music" viewBox="0 0 24 24"><path d="M9 18V5l12-3v13M9 9l12-3"/><ellipse cx="6" cy="18" rx="3" ry="3"/><ellipse cx="18" cy="15" rx="3" ry="3"/></symbol>
  <symbol id="file" viewBox="0 0 24 24"><path d="M14 2H4v20h16V8l-6-6Zm0 0v6h6M8 13h8m-8 4h6"/></symbol>
  <symbol id="link" viewBox="0 0 24 24"><path d="m10 14 4-4m-4 6-2 2a4.2 4.2 0 0 1-6-6l5-5a4.2 4.2 0 0 1 6 0m-2 10a4.2 4.2 0 0 0 6 0l5-5a4.2 4.2 0 0 0-6-6l-2 2"/></symbol>
  <symbol id="globe" viewBox="0 0 24 24"><circle cx="12" cy="12" r="9"/><ellipse cx="12" cy="12" rx="4" ry="9"/><path d="M3 12h18"/></symbol>
  <symbol id="clock" viewBox="0 0 24 24"><circle cx="12" cy="12" r="9"/><path d="M12 6v6l4 3"/></symbol>
  <symbol id="send" viewBox="0 0 24 24"><path d="m3 3 19 9-19 9 4-9-4-9Zm4 9h15"/></symbol>
  <symbol id="play" viewBox="0 0 24 24"><path d="m7 3 14 9-14 9V3Z"/></symbol>
  <symbol id="pause" viewBox="0 0 24 24"><path d="M8 4v16M16 4v16"/></symbol>
  <symbol id="stop" viewBox="0 0 24 24"><rect x="5" y="5" width="14" height="14" rx="1"/></symbol>
  <symbol id="close" viewBox="0 0 24 24"><path d="m6 6 12 12M6 18 18 6"/></symbol>
  <symbol id="phone" viewBox="0 0 24 24"><path d="m4 3 4-1 3 6-3 2a17 17 0 0 0 6 6l2-3 6 3-1 4a2 2 0 0 1-2 2A19 19 0 0 1 2 5a2 2 0 0 1 2-2Z"/></symbol>
  <symbol id="ban" viewBox="0 0 24 24"><circle cx="12" cy="12" r="9"/><path d="m6 6 12 12"/></symbol>
  <symbol id="shield" viewBox="0 0 24 24"><path d="m12 2 9 4v6c0 5-9 10-9 10S3 17 3 12V6l9-4Z"/></symbol>
  <symbol id="download" viewBox="0 0 24 24"><path d="M12 3v12m-5-5 5 5 5-5M4 15v6h16v-6"/></symbol>
  <symbol id="smartphone" viewBox="0 0 24 24"><rect x="6" y="2" width="12" height="20" rx="2"/><path d="M10 5h4m-3 14h2"/></symbol>
  <symbol id="sun" viewBox="0 0 24 24"><circle cx="12" cy="12" r="4"/><path d="M12 1v2m0 18v2M1 12h2m18 0h2M4 4l1.5 1.5m13 13L20 20M4 20l1.5-1.5m13-13L20 4"/></symbol>
  <symbol id="moon" viewBox="0 0 24 24"><path d="M20.5 14A9 9 0 0 1 10 3.5 9 9 0 1 0 20.5 14Z"/></symbol>
  <symbol id="home" viewBox="0 0 24 24"><path d="m2 11 10-9 10 9M5 9v12h14V9M9 21v-8h6v8"/></symbol>
  <symbol id="log-out" viewBox="0 0 24 24"><path d="M10 3H3v18h7m4-15 6 6-6 6M8 12h12"/></symbol>
  <symbol id="menu" viewBox="0 0 24 24"><path d="M3 5h18M3 12h18M3 19h18"/></symbol>
  <symbol id="more-vertical" viewBox="0 0 24 24"><circle cx="12" cy="5" r="1"/><circle cx="12" cy="12" r="1"/><circle cx="12" cy="19" r="1"/></symbol>
  <symbol id="more-horizontal" viewBox="0 0 24 24"><circle cx="5" cy="12" r="1"/><circle cx="12" cy="12" r="1"/><circle cx="19" cy="12" r="1"/></symbol>
  <symbol id="list" viewBox="0 0 24 24"><path d="M9 5h12M9 12h12M9 19h12M3 5h1m-1 7h1m-1 7h1"/></symbol>
  <symbol id="check-square" viewBox="0 0 24 24"><path d="M21 12v9H3V3h12m-8 8 5 5L22 5"/></symbol>
  <symbol id="refresh" viewBox="0 0 24 24"><path d="M20 8a9 9 0 0 0-15-3L3 8m0-6v6h6M4 16a9 9 0 0 0 15 3l2-3m0 6v-6h-6"/></symbol>
  <symbol id="alert-circle" viewBox="0 0 24 24"><circle cx="12" cy="12" r="9"/><path d="M12 6v7m0 4h.01"/></symbol>
  <symbol id="info" viewBox="0 0 24 24"><circle cx="12" cy="12" r="9"/><path d="M12 11v7m0-11h.01"/></symbol>
  <symbol id="smile" viewBox="0 0 24 24"><circle cx="12" cy="12" r="9"/><path d="M8 14a4.5 4.5 0 0 0 8 0M8 8h.01M16 8h.01"/></symbol>
  <symbol id="sticker" viewBox="0 0 24 24"><path d="M21 13V5a2 2 0 0 0-2-2H5a2 2 0 0 0-2 2v14a2 2 0 0 0 2 2h8l8-8Zm-8 8v-6a2 2 0 0 1 2-2h6"/></symbol>
  <symbol id="crown" viewBox="0 0 24 24"><path d="m3 5 5 5 4-7 4 7 5-5-2 13H5L3 5Zm3 16h12"/></symbol>
  <symbol id="scissors" viewBox="0 0 24 24"><circle cx="6" cy="6" r="3"/><circle cx="6" cy="18" r="3"/><path d="m8 8 13 13M8 16 21 3"/></symbol>
  <symbol id="crop" viewBox="0 0 24 24"><path d="M7 2v15h15M2 7h15v15"/></symbol>
  <symbol id="rotate" viewBox="0 0 24 24"><path d="M3 10a9 9 0 1 1 2 9M3 3v7h7"/></symbol>
  <symbol id="undo" viewBox="0 0 24 24"><path d="m8 3-6 6 6 6M2 9h12a7 7 0 0 1 0 14" transform="translate(0 -1)"/></symbol>
  <symbol id="eye" viewBox="0 0 24 24"><path d="M2 12s4-8 10-8 10 8 10 8-4 8-10 8S2 12 2 12Z"/><circle cx="12" cy="12" r="3"/></symbol>
  <symbol id="lock" viewBox="0 0 24 24"><rect x="4" y="10" width="16" height="12" rx="2"/><path d="M8 10V6a4 4 0 0 1 8 0v4m-4 5v3"/></symbol>
  <symbol id="inbox" viewBox="0 0 24 24"><path d="M3 13 6 3h12l3 10v8H3v-8Zm0 0h5l2 4h4l2-4h5"/></symbol>
</svg>
